<svg width="22" height="21" viewBox="0 0 22 21" fill="none" xmlns="http://www.w3.org/2000/svg">
<path d="M1.14941 10.3307C1.14941 5.81005 1.14941 3.54873 2.55366 2.14448C3.9579 0.740234 6.21822 0.740234 10.7399 0.740234C15.2605 0.740234 17.5218 0.740234 18.9261 2.14448C20.3303 3.54873 20.3303 5.80905 20.3303 10.3307C20.3303 14.8513 20.3303 17.1127 18.9261 18.5169C17.5218 19.9212 15.2615 19.9212 10.7399 19.9212C6.21923 19.9212 3.9579 19.9212 2.55366 18.5169C1.14941 17.1127 1.14941 14.8523 1.14941 10.3307Z" stroke="#F0EFE8" stroke-width="1.5" stroke-linecap="round" stroke-linejoin="round"/>
<path d="M16.3006 4.77905H16.2905M15.283 10.3314C15.283 11.5363 14.8043 12.6918 13.9524 13.5437C13.1004 14.3957 11.945 14.8743 10.7401 14.8743C9.53528 14.8743 8.37979 14.3957 7.52784 13.5437C6.67589 12.6918 6.19727 11.5363 6.19727 10.3314C6.19727 9.12659 6.67589 7.97109 7.52784 7.11915C8.37979 6.2672 9.53528 5.78857 10.7401 5.78857C11.945 5.78857 13.1004 6.2672 13.9524 7.11915C14.8043 7.97109 15.283 9.12659 15.283 10.3314Z" stroke="#F0EFE8" stroke-width="1.5" stroke-linecap="round" stroke-linejoin="round"/>
</svg>
