<svg width="26" height="27" viewBox="0 0 26 27" fill="none" xmlns="http://www.w3.org/2000/svg">
<path d="M18.8374 16.1675C18.508 16.0115 16.9307 15.2315 16.6361 15.1102C16.3414 14.9889 16.1334 14.9542 15.9081 15.2835C15.6827 15.6129 15.0761 16.3235 14.8854 16.5488C14.6948 16.7742 14.5214 16.7915 14.1921 16.5488C13.2457 16.1702 12.372 15.6307 11.6095 14.9542C10.9197 14.3028 10.335 13.5486 9.87618 12.7182C9.68551 12.4062 9.87618 12.2329 10.0148 12.0596C10.1535 11.8863 10.3268 11.6956 10.5002 11.5049C10.6268 11.3399 10.7316 11.1593 10.8122 10.9676C10.8552 10.8784 10.8775 10.7806 10.8775 10.6816C10.8775 10.5826 10.8552 10.4848 10.8122 10.3956C10.8122 10.2396 10.0842 8.66231 9.80685 8.02098C9.52952 7.37966 9.28685 7.46633 9.09619 7.46633H8.40287C8.07259 7.4792 7.76091 7.62258 7.53622 7.86499C7.17354 8.21108 6.88626 8.62836 6.69239 9.09066C6.49852 9.55297 6.40223 10.0503 6.40957 10.5516C6.49926 11.782 6.95164 12.9582 7.70955 13.9315C9.10083 16.0012 11.0062 17.6736 13.2388 18.7848C14.0014 19.1141 14.5908 19.3048 15.0588 19.4608C15.7156 19.6614 16.4107 19.703 17.0867 19.5821C17.5358 19.491 17.9614 19.3086 18.3371 19.0462C18.7128 18.7838 19.0305 18.4471 19.2707 18.0568C19.4705 17.5749 19.5364 17.0478 19.4613 16.5315C19.3747 16.4102 19.1667 16.3235 18.8374 16.1675Z" fill="#F0EFE8"/>
<path d="M22.0784 4.36449C20.8797 3.15445 19.4508 2.19669 17.876 1.54773C16.3012 0.898758 14.6124 0.571717 12.9092 0.585891C10.653 0.597698 8.43929 1.20127 6.4893 2.33632C4.53931 3.47138 2.92125 5.09818 1.79672 7.05426C0.672193 9.01034 0.0805611 11.2272 0.0809144 13.4835C0.0812678 15.7398 0.673594 17.9565 1.79873 19.9122L0.0654297 26.5854L6.89465 24.8521C8.78262 25.8795 10.8985 26.4159 13.0479 26.4121H12.9092C15.4709 26.4288 17.9795 25.6822 20.1151 24.2674C22.2508 22.8527 23.9167 20.8339 24.9004 18.4685C25.8841 16.1032 26.141 13.4985 25.6384 10.9865C25.1358 8.47459 23.8965 6.16925 22.0784 4.36449ZM12.9092 24.1935C10.986 24.1968 9.09825 23.6754 7.4493 22.6855L7.06798 22.4602L3.01205 23.5175L4.0867 19.5656L3.84403 19.1669C2.45974 16.9376 1.94192 14.2777 2.38883 11.6919C2.83574 9.10608 4.21628 6.77428 6.26852 5.13891C8.32075 3.50353 10.9019 2.67837 13.5222 2.81998C16.1425 2.96159 18.6197 4.06011 20.4837 5.90713C21.4831 6.8984 22.2751 8.07863 22.8137 9.37906C23.3524 10.6795 23.6268 12.0741 23.621 13.4817C23.6164 16.3212 22.4864 19.0431 20.4785 21.051C18.4707 23.0589 15.7488 24.1889 12.9092 24.1935Z" fill="#F0EFE8"/>
</svg>
