<svg width="30" height="21" viewBox="0 0 30 21" fill="none" xmlns="http://www.w3.org/2000/svg">
<path fill-rule="evenodd" clip-rule="evenodd" d="M19.6434 0.556844C16.1151 0.53613 14.9848 0.533829 11.4581 0.52002L11.3682 20.4708L19.3149 20.5076C19.4815 20.5145 19.6504 20.5214 19.8207 20.5214C25.3556 20.5542 29.8901 16.1925 29.9978 10.732C30.1055 5.27141 25.7465 0.738882 20.2145 0.559144C20.0233 0.552898 19.8323 0.552898 19.6434 0.556844ZM2.58248 14.382L2.57782 13.5541C2.58006 12.8703 3.02844 12.2656 3.68834 12.0566C4.34825 11.8476 5.06951 12.0817 5.47474 12.6365L5.96422 13.3125L6.76393 13.055C7.45176 12.8369 8.20242 13.1008 8.59544 13.699C8.98845 14.2972 8.92623 15.0811 8.44363 15.6117L8.03578 16.1591L8.53559 16.8282C8.95424 17.3981 8.93983 18.1726 8.50026 18.7269C8.0607 19.2813 7.30225 19.4814 6.64097 19.2175L5.93956 18.9873L5.44541 19.6587C5.03315 20.2148 4.30291 20.4427 3.64153 20.2217C2.98014 20.0007 2.5405 19.3819 2.55549 18.6931C2.56016 18.4264 2.56249 18.1548 2.56716 17.8882L1.76546 17.6331C1.12011 17.424 0.679011 16.8355 0.665364 16.1654C0.651718 15.4953 1.0685 14.8898 1.70481 14.6552C1.98204 14.554 2.29892 14.4711 2.58348 14.3817L2.58248 14.382ZM2.63108 3.03517L2.62808 2.20531C2.62915 1.52024 3.07793 0.914137 3.73897 0.704918C4.40001 0.495698 5.12236 0.731141 5.52703 1.28772C5.69031 1.51294 5.85324 1.74079 6.01652 1.96371L6.81355 1.70857C7.50111 1.48965 8.25204 1.75273 8.64575 2.35046C9.03946 2.94819 8.97819 3.73214 8.49626 4.26324L8.08608 4.81067L8.58589 5.48205C9.00235 6.05199 8.98679 6.82496 8.54772 7.37813C8.10865 7.9313 7.35184 8.13143 6.69127 7.86904L5.98986 7.64152L5.49367 8.31186C5.08164 8.86757 4.35204 9.09556 3.69093 8.87518C3.02982 8.6548 2.58982 8.03693 2.60375 7.34851C2.60842 7.07956 2.61075 6.81029 2.61541 6.54134L1.81371 6.28851C1.16667 6.08041 0.723948 5.49108 0.710286 4.81971C0.696623 4.14833 1.11502 3.54195 1.75307 3.30839C2.0303 3.20975 2.34718 3.12657 2.62941 3.03714L2.63108 3.03517ZM16.6819 5.21045L16.6329 15.8631C18.5159 15.87 18.0148 15.8907 19.8934 15.8746C22.8389 15.8539 24.6916 13.4876 24.7059 10.572C24.7199 7.64577 22.8673 5.24859 19.9077 5.22557C18.0364 5.21176 18.5559 5.21867 16.6822 5.21176L16.6819 5.21045Z" fill="#F0EFE8"/>
</svg>
