<svg width="18" height="20" viewBox="0 0 18 20" fill="none" xmlns="http://www.w3.org/2000/svg">
<path d="M13.8675 3.74525C13.1392 2.91357 12.7378 1.84569 12.7379 0.740234H9.44521V13.9538C9.42034 14.669 9.11862 15.3466 8.60371 15.8436C8.08879 16.3406 7.40095 16.6182 6.68529 16.6178C5.17212 16.6178 3.91471 15.3817 3.91471 13.8472C3.91471 12.0144 5.68362 10.6397 7.5058 11.2045V7.83717C3.82946 7.347 0.611328 10.2028 0.611328 13.8472C0.611328 17.3957 3.5524 19.9212 6.67463 19.9212C10.0206 19.9212 12.7379 17.2039 12.7379 13.8472V7.14453C14.0731 8.10342 15.6762 8.61789 17.32 8.61507V5.32234C17.32 5.32234 15.3167 5.41825 13.8675 3.74525Z" fill="#F0EFE8"/>
</svg>
