<svg width="29" height="17" viewBox="0 0 29 17" fill="none" xmlns="http://www.w3.org/2000/svg">
<path d="M27.6954 1.24175C27.4065 2.16488 26.984 3.04069 26.4411 3.84129L26.463 3.80676C25.9475 4.66599 25.3318 5.6587 24.6161 6.78489C24.0023 7.67403 23.6774 8.13433 23.6414 8.16578C23.4773 8.37118 23.3712 8.61672 23.3341 8.87694L23.333 8.885C23.3623 9.11946 23.4711 9.33678 23.6414 9.50065L24.1017 10.0139C26.5643 12.5448 27.9494 14.2893 28.257 15.2475C28.3153 15.4049 28.3341 15.5742 28.3116 15.7405C28.2892 15.9069 28.2261 16.0652 28.1281 16.2014L28.1304 16.198C28.0146 16.3175 27.8734 16.4094 27.7172 16.467C27.561 16.5245 27.3939 16.5463 27.2282 16.5305H27.2328H24.1995C23.8117 16.5305 23.4549 16.3948 23.1753 16.1692L23.1788 16.1715C22.7795 15.8442 22.413 15.4788 22.0844 15.0806L22.0741 15.0668C21.5439 14.4676 21.0737 13.9632 20.6632 13.5536C19.2962 12.254 18.2873 11.6042 17.6368 11.6042C17.4268 11.5854 17.2169 11.6403 17.043 11.7596L17.0465 11.7573C16.9718 11.8509 16.9169 11.9588 16.8853 12.0743C16.8536 12.1899 16.8458 12.3106 16.8623 12.4293V12.4247C16.8176 12.9616 16.803 13.5006 16.8186 14.0392V14.0196V15.3533C16.8513 15.5126 16.8401 15.6778 16.7862 15.8313C16.7322 15.9847 16.6377 16.1206 16.5125 16.2244L16.5114 16.2256C15.9286 16.4889 15.287 16.5948 14.6506 16.5328L14.6656 16.534C12.9236 16.5041 11.2227 15.9996 9.74613 15.0749L9.78641 15.0979C8.08375 14.0714 6.62435 12.6874 5.50909 11.0415L5.47802 10.9932C4.39544 9.54953 3.44384 8.01218 2.63453 6.39939L2.55398 6.22218C2.01469 5.17781 1.54082 4.10094 1.13511 2.99779L1.06606 2.7849C0.877958 2.21222 0.758216 1.61931 0.709333 1.01851L0.707031 0.989742C0.707031 0.408232 1.04919 0.117478 1.7335 0.117478H4.75995C5.06592 0.0935137 5.36965 0.185989 5.61035 0.376395L5.60805 0.374094C5.8382 0.626107 6.00851 0.935656 6.09252 1.28088L6.09597 1.29469C6.59596 2.72658 7.20654 4.11742 7.9222 5.45463L7.8451 5.29698C8.36235 6.34764 8.98832 7.34118 9.71276 8.2613L9.68629 8.22562C10.3 8.97898 10.7787 9.35565 11.1224 9.35565L11.1592 9.35681C11.2402 9.35693 11.3197 9.33571 11.3898 9.29531C11.4599 9.2549 11.5181 9.19673 11.5586 9.12666L11.5597 9.12435C11.6699 8.83593 11.7135 8.52636 11.6874 8.21872V8.22562V3.76188C11.6659 3.25578 11.5406 2.75951 11.3192 2.30389L11.3284 2.32576C11.1942 2.03619 11.0198 1.76696 10.8106 1.52599L10.814 1.53059C10.6211 1.33794 10.4955 1.08809 10.4561 0.818281L10.455 0.811376C10.455 0.61575 10.5447 0.439686 10.6851 0.324611L10.6863 0.323461C10.8308 0.191147 11.0197 0.118026 11.2156 0.118628H15.9958C16.1158 0.104624 16.2374 0.120635 16.3497 0.165224C16.462 0.209812 16.5614 0.281584 16.6391 0.374094L16.6402 0.375244C16.7856 0.643799 16.8492 0.949007 16.8232 1.25326V1.24751V7.20031C16.8049 7.4351 16.8595 7.66981 16.9797 7.87234L16.9774 7.86774C17.0196 7.93072 17.0766 7.98236 17.1434 8.01808C17.2102 8.05381 17.2848 8.07252 17.3606 8.07257C17.5547 8.05997 17.743 7.99559 17.9038 7.88615L17.9003 7.88845C18.2133 7.67327 18.4826 7.42816 18.7162 7.15083L18.7208 7.14507C19.4317 6.34067 20.0691 5.47415 20.6253 4.5559L20.6701 4.47535C21.066 3.81942 21.4941 3.0116 21.8819 2.18191L21.9532 2.01275L22.4665 0.986289C22.5568 0.720888 22.7311 0.492114 22.963 0.334541C23.1949 0.176968 23.4718 0.0991598 23.7518 0.112874H23.7484H26.776C27.5938 0.112874 27.9007 0.489168 27.6966 1.24175H27.6954Z" fill="#F0EFE8"/>
</svg>
