<svg width="29" height="28" viewBox="0 0 29 28" fill="none" xmlns="http://www.w3.org/2000/svg">
<path d="M15.1393 2.21575L0.209278 17.1457C0.115392 17.2395 0.0625939 17.3667 0.0625001 17.4994C0.0624064 17.6321 0.115024 17.7594 0.208778 17.8532C0.302532 17.9471 0.429743 17.9999 0.562425 18C0.695107 18.0001 0.822392 17.9475 0.916278 17.8537L15.8463 2.92375C17.0785 1.69155 18.7497 0.99931 20.4923 0.99931C22.2349 0.99931 23.9061 1.69155 25.1383 2.92375C26.3705 4.15594 27.0627 5.82716 27.0627 7.56975C27.0627 9.31233 26.3705 10.9836 25.1383 12.2157L11.3493 26.0047C11.0372 26.331 10.663 26.5917 10.2488 26.7714C9.83461 26.9511 9.38867 27.0463 8.93718 27.0513C8.48568 27.0563 8.03774 26.9711 7.61963 26.8006C7.20153 26.6302 6.82169 26.3779 6.50242 26.0586C6.18314 25.7393 5.93087 25.3595 5.7604 24.9414C5.58993 24.5233 5.5047 24.0753 5.50972 23.6238C5.51473 23.1724 5.6099 22.7264 5.78961 22.3122C5.96933 21.898 6.22999 21.5238 6.55628 21.2117L18.4163 9.35175C18.4627 9.30526 18.4995 9.25008 18.5246 9.18937C18.5497 9.12865 18.5626 9.06359 18.5626 8.99789C18.5625 8.93219 18.5495 8.86715 18.5243 8.80647C18.4992 8.74579 18.4623 8.69067 18.4158 8.64425C18.3693 8.59782 18.3141 8.56101 18.2534 8.53591C18.1927 8.51082 18.1276 8.49792 18.0619 8.49797C17.9962 8.49801 17.9312 8.511 17.8705 8.53618C17.8098 8.56137 17.7547 8.59826 17.7083 8.64475L5.84928 20.5047C5.05481 21.3337 4.61671 22.4409 4.62889 23.589C4.64107 24.7371 5.10256 25.8347 5.91444 26.6466C6.72632 27.4585 7.82396 27.92 8.97207 27.9321C10.1202 27.9443 11.2274 27.5062 12.0563 26.7117L25.8463 12.9237C27.2662 11.5038 28.064 9.57789 28.064 7.56975C28.064 5.56161 27.2662 3.63572 25.8463 2.21575C24.4263 0.795777 22.5004 -0.00195312 20.4923 -0.00195312C18.4841 -0.00195312 16.5592 0.795777 15.1393 2.21575Z" fill="white"/>
</svg>
