<svg width="28" height="17" viewBox="0 0 28 17" fill="none" xmlns="http://www.w3.org/2000/svg">
<path d="M27.3666 1.62457C27.0777 2.54769 26.6551 3.4235 26.1123 4.2241L26.1341 4.18958C25.6186 5.0488 25.0029 6.04151 24.2872 7.1677C23.6734 8.05684 23.3486 8.51714 23.3125 8.5486C23.1485 8.75399 23.0424 8.99953 23.0052 9.25976L23.0041 9.26781C23.0334 9.50228 23.1423 9.71959 23.3125 9.88346L23.7728 10.3967C26.2354 12.9276 27.6205 14.6721 27.9281 15.6303C27.9865 15.7877 28.0052 15.957 27.9828 16.1233C27.9603 16.2897 27.8973 16.448 27.7993 16.5842L27.8016 16.5808C27.6857 16.7003 27.5445 16.7922 27.3883 16.8498C27.2322 16.9074 27.0651 16.9291 26.8994 16.9134H26.904H23.8706C23.4828 16.9134 23.1261 16.7776 22.8464 16.552L22.8499 16.5543C22.4506 16.227 22.0841 15.8616 21.7555 15.4634L21.7452 15.4496C21.2151 14.8505 20.7448 14.346 20.3344 13.9364C18.9673 12.6368 17.9585 11.987 17.3079 11.987C17.0979 11.9682 16.888 12.0231 16.7141 12.1424L16.7176 12.1401C16.6429 12.2337 16.588 12.3416 16.5564 12.4571C16.5247 12.5727 16.5169 12.6935 16.5335 12.8121V12.8075C16.4887 13.3444 16.4741 13.8834 16.4897 14.422V14.4024V15.7361C16.5224 15.8955 16.5112 16.0607 16.4573 16.2141C16.4034 16.3675 16.3088 16.5034 16.1836 16.6073L16.1825 16.6084C15.5997 16.8717 14.9582 16.9776 14.3217 16.9157L14.3367 16.9168C12.5947 16.8869 10.8938 16.3824 9.41726 15.4577L9.45753 15.4807C7.75488 14.4542 6.29548 13.0702 5.18022 11.4243L5.14915 11.376C4.06657 9.93234 3.11496 8.39499 2.30566 6.7822L2.2251 6.60499C1.68582 5.56062 1.21195 4.48375 0.806236 3.3806L0.737191 3.16772C0.549085 2.59503 0.429344 2.00212 0.38046 1.40132L0.378159 1.37255C0.378159 0.791045 0.720313 0.50029 1.40462 0.50029H4.43108C4.73705 0.476326 5.04078 0.568802 5.28148 0.759208L5.27918 0.756906C5.50933 1.00892 5.67964 1.31847 5.76364 1.66369L5.7671 1.6775C6.26708 3.10939 6.87767 4.50023 7.59333 5.83744L7.51623 5.67979C8.03347 6.73045 8.65945 7.72399 9.38389 8.64411L9.35742 8.60843C9.97115 9.36179 10.4499 9.73847 10.7935 9.73847L10.8304 9.73962C10.9113 9.73974 10.9908 9.71852 11.0609 9.67812C11.131 9.63771 11.1892 9.57954 11.2297 9.50947L11.2308 9.50717C11.341 9.21874 11.3847 8.90917 11.3586 8.60153V8.60843V4.1447C11.3371 3.6386 11.2117 3.14232 10.9903 2.6867L10.9995 2.70857C10.8653 2.41901 10.691 2.14978 10.4817 1.9088L10.4851 1.9134C10.2922 1.72076 10.1667 1.4709 10.1273 1.20109L10.1261 1.19419C10.1261 0.998562 10.2159 0.822498 10.3563 0.707424L10.3574 0.706273C10.5019 0.573959 10.6909 0.500839 10.8868 0.501441H15.667C15.7869 0.487437 15.9085 0.503448 16.0208 0.548036C16.1331 0.592625 16.2325 0.664396 16.3102 0.756906L16.3114 0.758057C16.4567 1.02661 16.5203 1.33182 16.4943 1.63607V1.63032V7.58312C16.476 7.81791 16.5307 8.05262 16.6508 8.25516L16.6485 8.25055C16.6907 8.31354 16.7477 8.36517 16.8145 8.4009C16.8813 8.43662 16.956 8.45533 17.0317 8.45539C17.2258 8.44278 17.4141 8.37841 17.5749 8.26897L17.5714 8.27127C17.8844 8.05608 18.1537 7.81097 18.3873 7.53364L18.3919 7.52789C19.1029 6.72349 19.7402 5.85696 20.2964 4.93871L20.3413 4.85816C20.7371 4.20223 21.1652 3.39441 21.553 2.56473L21.6244 2.39557L22.1376 1.3691C22.228 1.1037 22.4023 0.874926 22.6342 0.717354C22.8661 0.559781 23.1429 0.481972 23.423 0.495687H23.4195H26.4471C27.2649 0.495687 27.5718 0.87198 27.3677 1.62457H27.3666Z" fill="#F0EFE8"/>
</svg>
