<svg width="17" height="20" viewBox="0 0 17 20" fill="none" xmlns="http://www.w3.org/2000/svg">
<path d="M13.5386 3.12806C12.8103 2.29638 12.4089 1.22851 12.409 0.123047H9.11632V13.3366C9.09145 14.0518 8.78973 14.7294 8.27482 15.2264C7.7599 15.7234 7.07206 16.001 6.3564 16.0006C4.84324 16.0006 3.58582 14.7645 3.58582 13.23C3.58582 11.3972 5.35473 10.0225 7.17692 10.5873V7.21999C3.50057 6.72981 0.28244 9.58563 0.28244 13.23C0.28244 16.7785 3.22352 19.304 6.34574 19.304C9.69175 19.304 12.409 16.5867 12.409 13.23V6.52734C13.7442 7.48623 15.3473 8.0007 16.9912 7.99788V4.70516C16.9912 4.70516 14.9878 4.80106 13.5386 3.12806Z" fill="#F0EFE8"/>
</svg>
