<svg width="21" height="22" viewBox="0 0 21 22" fill="none" xmlns="http://www.w3.org/2000/svg">
<path d="M0.820251 10.7135C0.820251 6.19287 0.820251 3.93154 2.2245 2.52729C3.62874 1.12305 5.88906 1.12305 10.4107 1.12305C14.9314 1.12305 17.1927 1.12305 18.5969 2.52729C20.0012 3.93154 20.0012 6.19186 20.0012 10.7135C20.0012 15.2341 20.0012 17.4955 18.5969 18.8997C17.1927 20.304 14.9324 20.304 10.4107 20.304C5.89007 20.304 3.62874 20.304 2.2245 18.8997C0.820251 17.4955 0.820251 15.2352 0.820251 10.7135Z" stroke="#F0EFE8" stroke-width="1.5" stroke-linecap="round" stroke-linejoin="round"/>
<path d="M15.9712 5.16211H15.9611M14.9536 10.7145C14.9536 11.9193 14.4749 13.0748 13.623 13.9268C12.771 14.7787 11.6155 15.2573 10.4107 15.2573C9.20587 15.2573 8.05038 14.7787 7.19843 13.9268C6.34648 13.0748 5.86786 11.9193 5.86786 10.7145C5.86786 9.50964 6.34648 8.35415 7.19843 7.5022C8.05038 6.65025 9.20587 6.17163 10.4107 6.17163C11.6155 6.17163 12.771 6.65025 13.623 7.5022C14.4749 8.35415 14.9536 9.50964 14.9536 10.7145Z" stroke="#F0EFE8" stroke-width="1.5" stroke-linecap="round" stroke-linejoin="round"/>
</svg>
