<svg width="126" height="80" viewBox="0 0 126 80" fill="none" xmlns="http://www.w3.org/2000/svg">
<path d="M0.222656 0.78125V30.3693H6.64738C11.4662 30.3693 14.0866 27.7485 14.0866 22.888V8.26298C14.0866 3.40204 11.4662 0.78125 6.64738 0.78125H0.222656ZM4.70294 4.92368H6.47847C8.63397 4.92368 9.60634 6.06499 9.60634 8.55868V22.5919C9.60634 25.0859 8.63397 26.2269 6.47847 26.2269H4.70294V4.92368ZM20.8203 30.3693V0.78125H16.34V30.3693H20.8203ZM42.5171 30.3693V0.78125H36.4727L33.0066 16.6743H32.9223L29.4138 0.78125H23.5386V30.3693H27.7653V9.82678H27.85L31.5696 26.1426H34.2326L37.9522 9.82678H38.0368V30.3693H42.5171Z" fill="#F0EFE8"/>
<path d="M19.2011 64.699V35.111H13.1567L9.69065 51.004H9.60634L6.0978 35.111H0.222656V64.699H4.44939V44.1565H4.53403L8.25363 60.4723H10.9166L14.6362 44.1565H14.7208V64.699H19.2011ZM36.2484 64.699L31.1339 35.111H25.4277L20.3132 64.699H24.7935L25.7658 57.9783H30.7111L31.6835 64.699H36.2484ZM28.1753 41.4514H28.302L30.1193 53.9205H26.3576L28.1753 41.4514ZM46.3213 46.8615L52.4079 35.111H47.7162L41.5026 47.4533H41.4182V35.111H36.9376V64.699H41.4182V55.5689L43.3624 51.765L47.7583 64.699H52.5346L46.3213 46.8615ZM58.2541 34.6885C53.9849 34.6885 51.5755 37.0975 51.5755 41.3246V41.9585C51.5755 45.4246 52.9704 47.8761 57.0707 51.3422C60.0718 53.8783 60.9592 55.3579 60.9592 57.2177V58.1897C60.9592 60.0495 60.1139 60.9794 58.423 60.9794C56.7325 60.9794 55.8869 60.0495 55.8869 58.1897V56.0764L51.5755 56.4988V58.4854C51.5755 62.7124 54.0695 65.1219 58.5076 65.1219C62.9458 65.1219 65.4398 62.7124 65.4398 58.4854V57.0062C65.4398 53.4555 63.9182 51.004 59.8179 47.5379C56.8171 45.0017 56.0561 43.5226 56.0561 41.7896V41.4089C56.0561 39.7183 56.8592 38.8306 58.3387 38.8306C59.8179 38.8306 60.621 39.7183 60.621 41.4089V42.5081L64.9324 42.0853V41.3246C64.9324 37.0975 62.5233 34.6885 58.2541 34.6885ZM70.5247 64.699V35.111H66.0444V64.699H70.5247ZM92.2215 64.699V35.111H86.1771L82.711 51.004H82.6268L79.1182 35.111H73.2431V64.699H77.4698V44.1565H77.5544L81.274 60.4723H83.937L87.6566 44.1565H87.7412V64.699H92.2215ZM101.703 34.6885C97.2221 34.6885 94.4749 37.5204 94.4749 42.1699V57.6401C94.4749 62.2897 97.2221 65.1219 101.703 65.1219C106.183 65.1219 108.931 62.2897 108.931 57.6401V42.1699C108.931 37.5204 106.183 34.6885 101.703 34.6885ZM101.703 38.8306C103.478 38.8306 104.45 40.0141 104.45 42.2121V57.598C104.45 59.796 103.478 60.9794 101.703 60.9794C99.9276 60.9794 98.9552 59.796 98.9552 57.598V42.2121C98.9552 40.0141 99.9276 38.8306 101.703 38.8306ZM120.145 64.699L125.133 35.111H120.652L117.355 57.6826H117.271L113.931 35.111H109.366L114.354 64.699H120.145Z" fill="#F0EFE8"/>
<path d="M0.222656 79.844L2.39074 74.237H2.6871L4.81575 79.844H4.55713L3.8332 77.9413H1.22088L0.486759 79.844H0.222656ZM1.31332 77.6993H3.73837L2.53894 74.5412L1.31332 77.6993ZM5.02921 79.844V74.237H6.89037C7.57658 74.237 8.06805 74.3515 8.36579 74.5816C8.66318 74.8104 8.81138 75.1846 8.81138 75.7046C8.81138 76.0605 8.72845 76.3544 8.56191 76.5818C8.39435 76.8092 8.13943 76.9754 7.79649 77.0794C8.03305 77.1249 8.21624 77.2276 8.34743 77.3887C8.47862 77.5488 8.55816 77.7683 8.58671 78.0477C8.60336 78.2258 8.61899 78.4675 8.63225 78.773C8.65808 79.3372 8.72708 79.6944 8.84128 79.844H8.55408C8.46571 79.7349 8.40862 79.4178 8.38245 78.8913C8.37735 78.8057 8.37461 78.7404 8.37461 78.6975C8.37224 78.6663 8.36953 78.6221 8.36681 78.5636C8.33691 78.0334 8.24988 77.6827 8.10816 77.5124C8.01197 77.3979 7.88078 77.3159 7.71594 77.2667C7.55075 77.2174 7.32067 77.1926 7.02294 77.1926H5.29467V79.844H5.02921ZM5.29467 76.9509H7.02294C7.52358 76.9509 7.90152 76.847 8.16017 76.639C8.41779 76.4323 8.54628 76.1268 8.54628 75.724C8.54628 75.5394 8.51908 75.3729 8.46436 75.2237C8.40998 75.0741 8.33045 74.9443 8.22645 74.8362C8.09933 74.7064 7.94977 74.6153 7.77677 74.5606C7.60412 74.5062 7.3091 74.479 6.89037 74.479H5.29467V76.9509ZM13.7804 77.9879C13.7454 78.5922 13.5319 79.0721 13.1407 79.4279C12.7495 79.7828 12.2414 79.9609 11.6137 79.9609C10.8806 79.9609 10.3089 79.705 9.89693 79.1941C9.48602 78.6819 9.28073 77.9686 9.28073 77.0522C9.28073 76.1281 9.49149 75.4069 9.91123 74.8896C10.331 74.3709 10.9132 74.1123 11.6592 74.1123C12.2312 74.1123 12.7108 74.2734 13.1006 74.5973C13.4905 74.9209 13.7114 75.3443 13.7648 75.8671H13.4996C13.4228 75.3848 13.2203 75.0116 12.8899 74.7451C12.5599 74.479 12.135 74.3461 11.6137 74.3461C10.9846 74.3461 10.4843 74.5895 10.1114 75.0741C9.73958 75.5588 9.55367 76.2192 9.55367 77.0536C9.55367 77.8893 9.73449 78.5443 10.0958 79.0212C10.4571 79.497 10.9509 79.7349 11.5749 79.7349C12.1452 79.7349 12.6054 79.5775 12.9562 79.2641C13.3059 78.9497 13.4956 78.5249 13.5231 77.9879H13.7804ZM14.4771 79.844V74.237H14.7426V76.7246H18.2828V74.237H18.5478V79.844H18.2828V76.9665H14.7426V79.844H14.4771ZM19.5087 79.844V74.237H19.7738V79.844H19.5087ZM21.9589 79.844V74.479H20.2119V74.237H23.9706V74.479H22.224V79.844H21.9589ZM24.3373 79.844V74.237H27.7623V74.479H24.6028V76.8027H27.488V77.0444H24.6028V79.6023H27.8388V79.844H24.3373ZM32.6582 77.9879C32.6232 78.5922 32.4098 79.0721 32.0186 79.4279C31.6274 79.7828 31.1193 79.9609 30.4915 79.9609C29.7584 79.9609 29.1867 79.705 28.7748 79.1941C28.3639 78.6819 28.1586 77.9686 28.1586 77.0522C28.1586 76.1281 28.3693 75.4069 28.7891 74.8896C29.2088 74.3709 29.791 74.1123 30.537 74.1123C31.1091 74.1123 31.5886 74.2734 31.9785 74.5973C32.3683 74.9209 32.5892 75.3443 32.6426 75.8671H32.3775C32.3007 75.3848 32.0981 75.0116 31.7677 74.7451C31.4377 74.479 31.0129 74.3461 30.4915 74.3461C29.8624 74.3461 29.3621 74.5895 28.9892 75.0741C28.6174 75.5588 28.4315 76.2192 28.4315 77.0536C28.4315 77.8893 28.6123 78.5443 28.9736 79.0212C29.3349 79.497 29.8288 79.7349 30.4528 79.7349C31.0231 79.7349 31.4833 79.5775 31.834 79.2641C32.1838 78.9497 32.3734 78.5249 32.4009 77.9879H32.6582ZM34.5874 79.844V74.479H32.8404V74.237H36.5991V74.479H34.8525V79.844H34.5874ZM36.9271 74.237H37.1922V77.7633C37.1922 78.4077 37.3417 78.8977 37.6391 79.2318C37.9369 79.567 38.3736 79.7349 38.9466 79.7349C39.5146 79.7349 39.95 79.566 40.2504 79.2278C40.5505 78.8913 40.7015 78.4026 40.7015 77.7633V74.237H40.9665V77.888C40.9665 78.5378 40.7871 79.046 40.4272 79.4151C40.0682 79.7842 39.5744 79.9687 38.9453 79.9687C38.3074 79.9687 37.8121 79.7869 37.4587 79.4215C37.1038 79.0565 36.9271 78.5457 36.9271 77.888V74.237ZM41.84 79.844V74.237H43.7012C44.3874 74.237 44.8789 74.3515 45.1766 74.5816C45.474 74.8104 45.6222 75.1846 45.6222 75.7046C45.6222 76.0605 45.5393 76.3544 45.3727 76.5818C45.2052 76.8092 44.9503 76.9754 44.6073 77.0794C44.8439 77.1249 45.0271 77.2276 45.1583 77.3887C45.2895 77.5488 45.369 77.7683 45.3975 78.0477C45.4142 78.2258 45.4298 78.4675 45.4431 78.773C45.4689 79.3372 45.5379 79.6944 45.6521 79.844H45.3649C45.2765 79.7349 45.2194 79.4178 45.1932 78.8913C45.1882 78.8057 45.1854 78.7404 45.1854 78.6975C45.1831 78.6663 45.1803 78.6221 45.1776 78.5636C45.1477 78.0334 45.0607 77.6827 44.919 77.5124C44.8228 77.3979 44.6916 77.3159 44.5268 77.2667C44.3616 77.2174 44.1315 77.1926 43.8337 77.1926H42.1055V79.844H41.84ZM42.1055 76.9509H43.8337C44.3344 76.9509 44.7123 76.847 44.971 76.639C45.2286 76.4323 45.3571 76.1268 45.3571 75.724C45.3571 75.5394 45.3299 75.3729 45.2752 75.2237C45.2208 75.0741 45.1413 74.9443 45.0373 74.8362C44.9101 74.7064 44.7606 74.6153 44.5876 74.5606C44.415 74.5062 44.1199 74.479 43.7012 74.479H42.1055V76.9509ZM46.3332 79.844V74.237H49.7582V74.479H46.5987V76.8027H49.4839V77.0444H46.5987V79.6023H49.8346V79.844H46.3332ZM56.2359 79.844L55.6211 79.0928C55.3859 79.3879 55.1235 79.6125 54.8349 79.7672C54.5464 79.9218 54.2459 80 53.9342 80C53.4261 80 53.0128 79.8453 52.6916 79.536C52.3718 79.2267 52.2121 78.8277 52.2121 78.3403C52.2121 77.9671 52.329 77.6344 52.5628 77.3407C52.7956 77.0485 53.144 76.7987 53.6066 76.5934C53.3558 76.2814 53.1818 76.0268 53.0842 75.8317C52.9867 75.637 52.9374 75.4511 52.9374 75.2767C52.9374 74.9688 53.0414 74.7193 53.248 74.5269C53.4547 74.3332 53.7221 74.237 54.0525 74.237C54.372 74.237 54.6307 74.3345 54.8295 74.5306C55.0287 74.7257 55.1286 74.9793 55.1286 75.2913C55.1286 75.5863 55.0351 75.8474 54.8492 76.0761C54.6619 76.3035 54.3788 76.5064 53.9992 76.6804L55.5952 78.6677C55.6965 78.4688 55.7733 78.2584 55.824 78.0321C55.8746 77.806 55.9004 77.5681 55.9004 77.3173L56.1424 77.3214C56.137 77.6307 56.1033 77.9138 56.0422 78.1725C55.98 78.4311 55.8902 78.6639 55.7706 78.8692L56.5557 79.844H56.2359ZM55.4572 78.8756L53.7704 76.795C53.3466 76.9469 53.0244 77.1535 52.8021 77.4149C52.5798 77.6763 52.4694 77.9815 52.4694 78.3326C52.4694 78.7326 52.6047 79.0721 52.8749 79.3501C53.1454 79.6268 53.4754 79.7662 53.8666 79.7662C54.181 79.7662 54.475 79.6893 54.7489 79.536C55.0232 79.3824 55.2598 79.1628 55.4572 78.8756ZM53.8496 76.4907C54.2058 76.3374 54.4672 76.1631 54.6347 75.9684C54.8023 75.7719 54.8869 75.5472 54.8869 75.2899C54.8869 75.0456 54.805 74.8467 54.6426 74.6894C54.4801 74.5334 54.2734 74.4556 54.0212 74.4556C53.7898 74.4556 53.595 74.5307 53.435 74.6816C53.2752 74.8335 53.1947 75.018 53.1947 75.2366C53.1947 75.4225 53.2467 75.6149 53.3507 75.8161C53.4547 76.0163 53.6209 76.2412 53.8496 76.4907ZM59.1048 79.6023H60.1859C60.6084 79.6023 60.9449 79.5802 61.1957 79.536C61.4466 79.4918 61.6675 79.4202 61.8588 79.3216C62.194 79.1435 62.4499 78.86 62.628 78.4702C62.8061 78.079 62.8944 77.6031 62.8944 77.0406C62.8944 76.5662 62.8323 76.1567 62.7075 75.8096C62.5838 75.4613 62.3982 75.1795 62.1525 74.9609C61.956 74.7869 61.7157 74.6622 61.4323 74.5895C61.1478 74.5154 60.7318 74.479 60.1859 74.479H59.1048V79.6023ZM58.8393 79.844V74.237H60.1248C60.5979 74.237 60.967 74.2591 61.2348 74.3019C61.5026 74.3451 61.7338 74.4151 61.9261 74.5113C62.333 74.7115 62.6412 75.0272 62.8516 75.4575C63.0624 75.8878 63.1674 76.4166 63.1674 77.0457C63.1674 77.6786 63.061 78.2102 62.8489 78.6418C62.6372 79.0721 62.3306 79.3824 61.9261 79.5697C61.7263 79.6659 61.4857 79.7362 61.2049 79.779C60.9242 79.8219 60.5642 79.844 60.1248 79.844H58.8393ZM63.8549 79.844V74.237H67.2799V74.479H64.1204V76.8027H67.0056V77.0444H64.1204V79.6023H67.3564V79.844H63.8549ZM67.6293 78.1361H67.8869C67.9168 78.6289 68.0817 79.0174 68.3794 79.3046C68.6781 79.5918 69.067 79.7349 69.5465 79.7349C70.0169 79.7349 70.3989 79.6125 70.6953 79.3695C70.9903 79.1252 71.1385 78.8107 71.1385 78.4246C71.1385 78.0763 71.041 77.8098 70.8476 77.6229C70.6525 77.437 70.2015 77.2446 69.4932 77.0457L69.3868 77.0159C68.7498 76.8378 68.343 76.6675 68.1663 76.505C68.0361 76.3881 67.9375 76.2515 67.8713 76.0931C67.8036 75.9357 67.7696 75.7641 67.7696 75.5796C67.7696 75.1377 67.9233 74.7818 68.2285 74.514C68.5354 74.2462 68.9436 74.1123 69.4541 74.1123C69.9846 74.1123 70.4122 74.2605 70.7358 74.5555C71.0593 74.8518 71.2296 75.2522 71.2476 75.7576L70.9981 75.7539C70.9903 75.3249 70.8449 74.9806 70.5604 74.7206C70.2756 74.4606 69.9014 74.3308 69.4361 74.3308C68.9993 74.3308 68.655 74.4423 68.4001 74.6673C68.1466 74.8923 68.0195 75.1962 68.0195 75.5796C68.0195 75.724 68.048 75.8603 68.1051 75.9863C68.1622 76.1138 68.2482 76.2294 68.3624 76.3334C68.517 76.4802 68.8875 76.6325 69.4711 76.7898C69.5193 76.8028 69.5557 76.8119 69.5778 76.817C70.3197 77.0172 70.8099 77.2262 71.0478 77.4448C71.2853 77.663 71.4036 77.9658 71.4036 78.3546C71.4036 78.842 71.2347 79.2332 70.8969 79.5269C70.559 79.8219 70.108 79.9687 69.5415 79.9687C68.9902 79.9687 68.5446 79.8063 68.204 79.4827C67.8648 79.1578 67.6724 78.7094 67.6293 78.1361ZM72.0695 79.844V74.237H72.3346V79.844H72.0695ZM77.5075 79.844V78.7472C77.306 79.1591 77.0371 79.4657 76.703 79.6673C76.3689 79.8688 75.9607 79.9687 75.4774 79.9687C74.7341 79.9687 74.1437 79.7063 73.7083 79.1826C73.2719 78.6588 73.0534 77.9451 73.0534 77.0444C73.0534 76.1386 73.2706 75.4225 73.706 74.8987C74.1413 74.375 74.7341 74.1123 75.4852 74.1123C76.1001 74.1123 76.5976 74.2618 76.9797 74.5619C77.3607 74.8624 77.5918 75.2835 77.6699 75.828H77.4048C77.3165 75.3562 77.1058 74.9908 76.773 74.7322C76.4403 74.4749 76.0117 74.3461 75.4852 74.3461C74.8249 74.3461 74.3011 74.5895 73.9112 75.0741C73.5214 75.5588 73.3263 76.2164 73.3263 77.0457C73.3263 77.8737 73.5201 78.5286 73.9062 79.0109C74.2933 79.4932 74.817 79.7349 75.476 79.7349C76.096 79.7349 76.5847 79.5476 76.9446 79.1734C77.3036 78.7978 77.4827 78.2884 77.4827 77.6423V77.4033H75.649V77.1613H77.7478V79.844H77.5075ZM78.4588 79.844V74.237H78.7253L82.2332 79.3981V74.237H82.4983V79.844H82.2332L78.7243 74.6908V79.844H78.4588Z" fill="#F0EFE8"/>
</svg>
