<svg width="26" height="27" viewBox="0 0 26 27" fill="none" xmlns="http://www.w3.org/2000/svg">
<path d="M18.7719 16.2813C18.4426 16.1253 16.8653 15.3453 16.5706 15.224C16.276 15.1026 16.068 15.068 15.8426 15.3973C15.6173 15.7266 15.0107 16.4373 14.82 16.6626C14.6293 16.8879 14.456 16.9053 14.1267 16.6626C13.1803 16.2839 12.3065 15.7444 11.5441 15.068C10.8543 14.4166 10.2696 13.6624 9.81075 12.832C9.62008 12.52 9.81075 12.3467 9.94941 12.1734C10.0881 12 10.2614 11.8094 10.4347 11.6187C10.5613 11.4537 10.6662 11.2731 10.7467 11.0814C10.7897 10.9922 10.8121 10.8944 10.8121 10.7954C10.8121 10.6963 10.7897 10.5986 10.7467 10.5094C10.7467 10.3534 10.0187 8.77608 9.74142 8.13475C9.46409 7.49343 9.22143 7.5801 9.03076 7.5801H8.33744C8.00716 7.59297 7.69548 7.73634 7.47079 7.97875C7.10811 8.32485 6.82083 8.74213 6.62696 9.20443C6.43309 9.66674 6.3368 10.1641 6.34414 10.6654C6.43383 11.8958 6.88621 13.0719 7.64412 14.0453C9.0354 16.115 10.9408 17.7874 13.1734 18.8986C13.936 19.2279 14.5253 19.4186 14.9933 19.5746C15.6501 19.7751 16.3452 19.8167 17.0213 19.6959C17.4704 19.6048 17.896 19.4224 18.2716 19.16C18.6473 18.8976 18.9651 18.5608 19.2053 18.1706C19.4051 17.6886 19.471 17.1616 19.3959 16.6453C19.3093 16.5239 19.1013 16.4373 18.7719 16.2813Z" fill="#F0EFE8"/>
<path d="M22.013 4.47826C20.8143 3.26821 19.3854 2.31046 17.8106 1.66149C16.2358 1.01253 14.547 0.685486 12.8438 0.699661C10.5875 0.711468 8.37386 1.31504 6.42387 2.45009C4.47388 3.58515 2.85582 5.21195 1.73129 7.16803C0.606763 9.12411 0.0151314 11.341 0.0154848 13.5973C0.0158381 15.8536 0.608164 18.0703 1.7333 20.026L0 26.6992L6.82922 24.9659C8.71719 25.9933 10.8331 26.5297 12.9824 26.5259H12.8438C15.4055 26.5426 17.9141 25.7959 20.0497 24.3812C22.1853 22.9664 23.8512 20.9477 24.8349 18.5823C25.8186 16.217 26.0756 13.6123 25.573 11.1003C25.0704 8.58836 23.831 6.28302 22.013 4.47826ZM12.8438 24.3073C10.9205 24.3105 9.03282 23.7892 7.38387 22.7993L7.00255 22.574L2.94662 23.6313L4.02127 19.6793L3.7786 19.2807C2.39431 17.0514 1.87649 14.3915 2.3234 11.8057C2.77031 9.21985 4.15085 6.88805 6.20309 5.25268C8.25532 3.6173 10.8365 2.79214 13.4568 2.93375C16.0771 3.07536 18.5543 4.17388 20.4183 6.0209C21.4176 7.01217 22.2097 8.1924 22.7483 9.49283C23.2869 10.7933 23.5614 12.1879 23.5556 13.5954C23.551 16.435 22.421 19.1569 20.4131 21.1648C18.4053 23.1726 15.6833 24.3027 12.8438 24.3073Z" fill="#F0EFE8"/>
</svg>
