<svg width="139" height="72" viewBox="0 0 139 72" fill="none" xmlns="http://www.w3.org/2000/svg">
<path d="M0 0V32.9027H7.14445C12.5031 32.9027 15.4171 29.9883 15.4171 24.5832V8.31987C15.4171 2.91439 12.5031 0 7.14445 0H0ZM4.98218 4.60648H6.95662C9.3536 4.60648 10.4349 5.87566 10.4349 8.6487V24.254C10.4349 27.0274 9.3536 28.2962 6.95662 28.2962H4.98218V4.60648ZM22.9051 32.9027V0H17.9229V32.9027H22.9051ZM47.0325 32.9027V0H40.311L36.4566 17.6735H36.3629L32.4612 0H25.928V32.9027H30.6282V10.0589H30.7223L34.8586 28.2025H37.8199L41.9562 10.0589H42.0503V32.9027H47.0325Z" fill="white"/>
<path d="M21.1045 71.079V38.1764H14.383L10.5286 55.8498H10.4349L6.5333 38.1764H0V71.079H4.70023V48.2352H4.79435L8.93065 66.3788H11.8919L16.0282 48.2352H16.1223V71.079H21.1045ZM40.0615 71.079L34.3741 38.1764H28.0286L22.3412 71.079H27.3234L28.4047 63.6054H33.9039L34.9852 71.079H40.0615ZM31.084 45.2271H31.225L33.2459 59.0931H29.0627L31.084 45.2271ZM51.2629 51.2433L58.0312 38.1764H52.814L45.9043 51.9013H45.8105V38.1764H40.828V71.079H45.8105V60.9261L47.9724 56.6961L52.8609 71.079H58.1722L51.2629 51.2433ZM64.5324 37.7065C59.7849 37.7065 57.1056 40.3855 57.1056 45.0861V45.791C57.1056 49.6453 58.6568 52.3715 63.2164 56.2259C66.5537 59.0461 67.5406 60.6914 67.5406 62.7596V63.8405C67.5406 65.9087 66.6006 66.9427 64.7203 66.9427C62.8403 66.9427 61.9 65.9087 61.9 63.8405V61.4904L57.1056 61.9602V64.1693C57.1056 68.8699 59.8791 71.5493 64.8144 71.5493C69.7497 71.5493 72.5231 68.8699 72.5231 64.1693V62.5245C72.5231 58.576 70.831 55.8498 66.2714 51.9954C62.9344 49.1752 62.0882 47.5304 62.0882 45.6032V45.1798C62.0882 43.2999 62.9813 42.3127 64.6265 42.3127C66.2714 42.3127 67.1645 43.2999 67.1645 45.1798V46.4021L71.9588 45.932V45.0861C71.9588 40.3855 69.2799 37.7065 64.5324 37.7065ZM78.1776 71.079V38.1764H73.1955V71.079H78.1776ZM102.305 71.079V38.1764H95.5835L91.7291 55.8498H91.6354L87.7338 38.1764H81.2005V71.079H85.9007V48.2352H85.9948L90.1312 66.3788H93.0924L97.2288 48.2352H97.3228V71.079H102.305ZM112.848 37.7065C107.866 37.7065 104.811 40.8557 104.811 46.0261V63.2294C104.811 68.3997 107.866 71.5493 112.848 71.5493C117.831 71.5493 120.886 68.3997 120.886 63.2294V46.0261C120.886 40.8557 117.831 37.7065 112.848 37.7065ZM112.848 42.3127C114.822 42.3127 115.904 43.6287 115.904 46.073V63.1825C115.904 65.6267 114.822 66.9427 112.848 66.9427C110.874 66.9427 109.793 65.6267 109.793 63.1825V46.073C109.793 43.6287 110.874 42.3127 112.848 42.3127ZM133.356 71.079L138.903 38.1764H133.92L130.254 63.2766H130.16L126.447 38.1764H121.37L126.917 71.079H133.356Z" fill="white"/>
</svg>
