<svg width="116" height="116" viewBox="0 0 116 116" fill="none" xmlns="http://www.w3.org/2000/svg">
<path d="M57.8425 0C46.4024 0 35.2191 3.3924 25.707 9.74822C16.1948 16.104 8.78099 25.1378 4.40303 35.7071C0.0250622 46.2765 -1.12041 57.9067 1.11145 69.127C3.34332 80.3474 8.85229 90.6539 16.9417 98.7434C25.0311 106.833 35.3377 112.342 46.558 114.574C57.7784 116.805 69.4086 115.66 79.9779 111.282C90.5473 106.904 99.581 99.4902 105.937 89.9781C112.293 80.4659 115.685 69.2827 115.685 57.8425C115.685 50.2465 114.189 42.7249 111.282 35.7071C108.375 28.6894 104.115 22.3129 98.7434 16.9417C93.3722 11.5705 86.9957 7.30986 79.9779 4.403C72.9601 1.49614 65.4385 0 57.8425 0ZM46.274 83.8717V31.8134L80.9796 57.8425L46.274 83.8717Z" fill="white"/>
</svg>
